<mxfile host="app.diagrams.net" agent="Mozilla/5.0 (X11; Linux x86_64; rv:136.0) Gecko/20100101 Firefox/136.0" version="26.1.1">
  <diagram name="Page-1" id="Mg1o7jthEbh3UmmgbCB3">
    <mxGraphModel dx="1031" dy="958" grid="0" gridSize="10" guides="1" tooltips="1" connect="1" arrows="1" fold="1" page="1" pageScale="1" pageWidth="850" pageHeight="1100" background="light-dark(#121223,#121223)" math="0" shadow="0">
      <root>
        <mxCell id="0" />
        <mxCell id="1" parent="0" />
        <mxCell id="0NqgMj0i8Dpj532-MMCN-37" value="" style="rounded=0;whiteSpace=wrap;html=1;fillColor=none;strokeColor=#82b366;fontFamily=Inter;fontSource=https%3A%2F%2Ffonts.googleapis.com%2Fcss%3Ffamily%3DInter;" vertex="1" parent="1">
          <mxGeometry x="100" y="230" width="670" height="270" as="geometry" />
        </mxCell>
        <mxCell id="0NqgMj0i8Dpj532-MMCN-5" style="edgeStyle=orthogonalEdgeStyle;rounded=0;orthogonalLoop=1;jettySize=auto;html=1;exitX=0.5;exitY=1;exitDx=0;exitDy=0;entryX=0.5;entryY=0;entryDx=0;entryDy=0;fillColor=#dae8fc;strokeColor=#6c8ebf;fontFamily=Inter;fontSource=https%3A%2F%2Ffonts.googleapis.com%2Fcss%3Ffamily%3DInter;fontSize=14;" edge="1" parent="1" source="0NqgMj0i8Dpj532-MMCN-2" target="0NqgMj0i8Dpj532-MMCN-4">
          <mxGeometry relative="1" as="geometry" />
        </mxCell>
        <mxCell id="0NqgMj0i8Dpj532-MMCN-2" value="1. Entrar no site para descobrir o perfil técnico" style="rounded=0;whiteSpace=wrap;html=1;fillColor=#dae8fc;strokeColor=#6c8ebf;fontFamily=Inter;fontSource=https%3A%2F%2Ffonts.googleapis.com%2Fcss%3Ffamily%3DInter;fontSize=14;" vertex="1" parent="1">
          <mxGeometry x="129" y="518" width="200" height="60" as="geometry" />
        </mxCell>
        <mxCell id="0NqgMj0i8Dpj532-MMCN-7" value="Sim" style="edgeStyle=orthogonalEdgeStyle;rounded=0;orthogonalLoop=1;jettySize=auto;html=1;fillColor=#dae8fc;strokeColor=#6c8ebf;fontFamily=Inter;fontSource=https%3A%2F%2Ffonts.googleapis.com%2Fcss%3Ffamily%3DInter;fontSize=14;" edge="1" parent="1" source="0NqgMj0i8Dpj532-MMCN-4" target="0NqgMj0i8Dpj532-MMCN-6">
          <mxGeometry relative="1" as="geometry" />
        </mxCell>
        <mxCell id="0NqgMj0i8Dpj532-MMCN-10" value="Não" style="edgeStyle=orthogonalEdgeStyle;rounded=0;orthogonalLoop=1;jettySize=auto;html=1;fillColor=#dae8fc;strokeColor=#6c8ebf;fontFamily=Inter;fontSource=https%3A%2F%2Ffonts.googleapis.com%2Fcss%3Ffamily%3DInter;fontSize=14;" edge="1" parent="1" source="0NqgMj0i8Dpj532-MMCN-4" target="0NqgMj0i8Dpj532-MMCN-8">
          <mxGeometry relative="1" as="geometry" />
        </mxCell>
        <mxCell id="0NqgMj0i8Dpj532-MMCN-4" value="Idioma em português?" style="rhombus;whiteSpace=wrap;html=1;fillColor=#dae8fc;strokeColor=#6c8ebf;fontFamily=Inter;fontSource=https%3A%2F%2Ffonts.googleapis.com%2Fcss%3Ffamily%3DInter;fontSize=14;" vertex="1" parent="1">
          <mxGeometry x="169" y="598" width="120" height="120" as="geometry" />
        </mxCell>
        <mxCell id="0NqgMj0i8Dpj532-MMCN-14" style="edgeStyle=orthogonalEdgeStyle;rounded=0;orthogonalLoop=1;jettySize=auto;html=1;exitX=0.5;exitY=1;exitDx=0;exitDy=0;entryX=0.5;entryY=0;entryDx=0;entryDy=0;fillColor=#dae8fc;strokeColor=#6c8ebf;fontFamily=Inter;fontSource=https%3A%2F%2Ffonts.googleapis.com%2Fcss%3Ffamily%3DInter;fontSize=14;" edge="1" parent="1" source="0NqgMj0i8Dpj532-MMCN-6" target="0NqgMj0i8Dpj532-MMCN-13">
          <mxGeometry relative="1" as="geometry" />
        </mxCell>
        <mxCell id="0NqgMj0i8Dpj532-MMCN-6" value="2. Iniciar pesquisa do perfil" style="whiteSpace=wrap;html=1;fillColor=#dae8fc;strokeColor=#6c8ebf;fontFamily=Inter;fontSource=https%3A%2F%2Ffonts.googleapis.com%2Fcss%3Ffamily%3DInter;fontSize=14;" vertex="1" parent="1">
          <mxGeometry x="169" y="778" width="120" height="60" as="geometry" />
        </mxCell>
        <mxCell id="0NqgMj0i8Dpj532-MMCN-12" style="edgeStyle=orthogonalEdgeStyle;rounded=0;orthogonalLoop=1;jettySize=auto;html=1;exitX=0.5;exitY=1;exitDx=0;exitDy=0;entryX=1;entryY=0.5;entryDx=0;entryDy=0;fillColor=#dae8fc;strokeColor=#6c8ebf;fontFamily=Inter;fontSource=https%3A%2F%2Ffonts.googleapis.com%2Fcss%3Ffamily%3DInter;fontSize=14;" edge="1" parent="1" source="0NqgMj0i8Dpj532-MMCN-8" target="0NqgMj0i8Dpj532-MMCN-6">
          <mxGeometry relative="1" as="geometry" />
        </mxCell>
        <mxCell id="0NqgMj0i8Dpj532-MMCN-8" value="1.b) Habilitar o tradutor do navegador" style="whiteSpace=wrap;html=1;fillColor=#dae8fc;strokeColor=#6c8ebf;fontFamily=Inter;fontSource=https%3A%2F%2Ffonts.googleapis.com%2Fcss%3Ffamily%3DInter;fontSize=14;" vertex="1" parent="1">
          <mxGeometry x="379" y="628" width="170" height="60" as="geometry" />
        </mxCell>
        <mxCell id="0NqgMj0i8Dpj532-MMCN-16" value="" style="edgeStyle=orthogonalEdgeStyle;rounded=0;orthogonalLoop=1;jettySize=auto;html=1;fillColor=#dae8fc;strokeColor=#6c8ebf;fontFamily=Inter;fontSource=https%3A%2F%2Ffonts.googleapis.com%2Fcss%3Ffamily%3DInter;fontSize=14;" edge="1" parent="1" source="0NqgMj0i8Dpj532-MMCN-13" target="0NqgMj0i8Dpj532-MMCN-15">
          <mxGeometry relative="1" as="geometry" />
        </mxCell>
        <mxCell id="0NqgMj0i8Dpj532-MMCN-13" value="3. Responder as perguntas" style="whiteSpace=wrap;html=1;fillColor=#dae8fc;strokeColor=#6c8ebf;fontFamily=Inter;fontSource=https%3A%2F%2Ffonts.googleapis.com%2Fcss%3Ffamily%3DInter;fontSize=14;" vertex="1" parent="1">
          <mxGeometry x="139" y="878" width="180" height="60" as="geometry" />
        </mxCell>
        <mxCell id="0NqgMj0i8Dpj532-MMCN-18" value="" style="edgeStyle=orthogonalEdgeStyle;rounded=0;orthogonalLoop=1;jettySize=auto;html=1;fillColor=#dae8fc;strokeColor=#6c8ebf;fontFamily=Inter;fontSource=https%3A%2F%2Ffonts.googleapis.com%2Fcss%3Ffamily%3DInter;fontSize=14;" edge="1" parent="1" source="0NqgMj0i8Dpj532-MMCN-15" target="0NqgMj0i8Dpj532-MMCN-17">
          <mxGeometry relative="1" as="geometry" />
        </mxCell>
        <mxCell id="0NqgMj0i8Dpj532-MMCN-15" value="4. Receber o resultado da pesquisa" style="whiteSpace=wrap;html=1;fillColor=#dae8fc;strokeColor=#6c8ebf;fontFamily=Inter;fontSource=https%3A%2F%2Ffonts.googleapis.com%2Fcss%3Ffamily%3DInter;fontSize=14;" vertex="1" parent="1">
          <mxGeometry x="139" y="978" width="180" height="60" as="geometry" />
        </mxCell>
        <mxCell id="0NqgMj0i8Dpj532-MMCN-17" value="Fim" style="html=1;dashed=0;whiteSpace=wrap;shape=mxgraph.dfd.start;fillColor=#dae8fc;strokeColor=#6c8ebf;fontFamily=Inter;fontSource=https%3A%2F%2Ffonts.googleapis.com%2Fcss%3Ffamily%3DInter;fontSize=14;" vertex="1" parent="1">
          <mxGeometry x="189" y="1068" width="80" height="30" as="geometry" />
        </mxCell>
        <mxCell id="0NqgMj0i8Dpj532-MMCN-23" value="" style="edgeStyle=orthogonalEdgeStyle;rounded=0;orthogonalLoop=1;jettySize=auto;html=1;fillColor=#dae8fc;strokeColor=#6c8ebf;fontFamily=Inter;fontSource=https%3A%2F%2Ffonts.googleapis.com%2Fcss%3Ffamily%3DInter;fontSize=14;" edge="1" parent="1" source="0NqgMj0i8Dpj532-MMCN-21" target="0NqgMj0i8Dpj532-MMCN-22">
          <mxGeometry relative="1" as="geometry" />
        </mxCell>
        <mxCell id="0NqgMj0i8Dpj532-MMCN-21" value="Início" style="ellipse;whiteSpace=wrap;html=1;fillColor=#dae8fc;strokeColor=#6c8ebf;fontFamily=Inter;fontSource=https%3A%2F%2Ffonts.googleapis.com%2Fcss%3Ffamily%3DInter;fontSize=14;" vertex="1" parent="1">
          <mxGeometry x="168" y="10" width="122" height="80" as="geometry" />
        </mxCell>
        <mxCell id="0NqgMj0i8Dpj532-MMCN-27" value="" style="edgeStyle=orthogonalEdgeStyle;rounded=0;orthogonalLoop=1;jettySize=auto;html=1;fillColor=#dae8fc;strokeColor=#6c8ebf;fontFamily=Inter;fontSource=https%3A%2F%2Ffonts.googleapis.com%2Fcss%3Ffamily%3DInter;fontSize=14;" edge="1" parent="1" source="0NqgMj0i8Dpj532-MMCN-22" target="0NqgMj0i8Dpj532-MMCN-25">
          <mxGeometry relative="1" as="geometry" />
        </mxCell>
        <mxCell id="0NqgMj0i8Dpj532-MMCN-22" value="1. Entrar no site para descobrir o perfil técnico" style="rounded=0;whiteSpace=wrap;html=1;fillColor=#dae8fc;strokeColor=#6c8ebf;fontFamily=Inter;fontSource=https%3A%2F%2Ffonts.googleapis.com%2Fcss%3Ffamily%3DInter;fontSize=14;" vertex="1" parent="1">
          <mxGeometry x="125" y="140" width="208" height="60" as="geometry" />
        </mxCell>
        <mxCell id="0NqgMj0i8Dpj532-MMCN-31" value="Não" style="edgeStyle=orthogonalEdgeStyle;rounded=0;orthogonalLoop=1;jettySize=auto;html=1;fontFamily=Inter;fontSource=https%3A%2F%2Ffonts.googleapis.com%2Fcss%3Ffamily%3DInter;fontSize=14;fillColor=#d5e8d4;strokeColor=#82b366;" edge="1" parent="1" source="0NqgMj0i8Dpj532-MMCN-24" target="0NqgMj0i8Dpj532-MMCN-29">
          <mxGeometry relative="1" as="geometry" />
        </mxCell>
        <mxCell id="0NqgMj0i8Dpj532-MMCN-36" value="" style="edgeStyle=orthogonalEdgeStyle;rounded=0;orthogonalLoop=1;jettySize=auto;html=1;fontFamily=Inter;fontSource=https%3A%2F%2Ffonts.googleapis.com%2Fcss%3Ffamily%3DInter;" edge="1" parent="1" source="0NqgMj0i8Dpj532-MMCN-24" target="0NqgMj0i8Dpj532-MMCN-2">
          <mxGeometry relative="1" as="geometry" />
        </mxCell>
        <mxCell id="0NqgMj0i8Dpj532-MMCN-24" value="Login foi um sucesso?" style="rhombus;whiteSpace=wrap;html=1;fontFamily=Inter;fontSource=https%3A%2F%2Ffonts.googleapis.com%2Fcss%3Ffamily%3DInter;fontSize=14;fillColor=#d5e8d4;strokeColor=#82b366;" vertex="1" parent="1">
          <mxGeometry x="168" y="361" width="122" height="120" as="geometry" />
        </mxCell>
        <mxCell id="0NqgMj0i8Dpj532-MMCN-28" value="" style="edgeStyle=orthogonalEdgeStyle;rounded=0;orthogonalLoop=1;jettySize=auto;html=1;fontFamily=Inter;fontSource=https%3A%2F%2Ffonts.googleapis.com%2Fcss%3Ffamily%3DInter;fontSize=14;fillColor=#d5e8d4;strokeColor=#82b366;" edge="1" parent="1" source="0NqgMj0i8Dpj532-MMCN-25" target="0NqgMj0i8Dpj532-MMCN-24">
          <mxGeometry relative="1" as="geometry" />
        </mxCell>
        <mxCell id="0NqgMj0i8Dpj532-MMCN-25" value="1.1 - Fornecer usuário e senha para autenticar no site" style="whiteSpace=wrap;html=1;fontFamily=Inter;fontSource=https%3A%2F%2Ffonts.googleapis.com%2Fcss%3Ffamily%3DInter;fontSize=14;fillColor=#d5e8d4;strokeColor=#82b366;" vertex="1" parent="1">
          <mxGeometry x="125" y="261" width="208" height="60" as="geometry" />
        </mxCell>
        <mxCell id="0NqgMj0i8Dpj532-MMCN-33" value="Sim" style="edgeStyle=orthogonalEdgeStyle;rounded=0;orthogonalLoop=1;jettySize=auto;html=1;fontFamily=Inter;fontSource=https%3A%2F%2Ffonts.googleapis.com%2Fcss%3Ffamily%3DInter;fontSize=14;fillColor=#d5e8d4;strokeColor=#82b366;" edge="1" parent="1" source="0NqgMj0i8Dpj532-MMCN-29" target="0NqgMj0i8Dpj532-MMCN-32">
          <mxGeometry relative="1" as="geometry" />
        </mxCell>
        <mxCell id="0NqgMj0i8Dpj532-MMCN-35" value="Não" style="edgeStyle=orthogonalEdgeStyle;rounded=0;orthogonalLoop=1;jettySize=auto;html=1;exitX=0.5;exitY=0;exitDx=0;exitDy=0;entryX=1;entryY=0.5;entryDx=0;entryDy=0;fontFamily=Inter;fontSource=https%3A%2F%2Ffonts.googleapis.com%2Fcss%3Ffamily%3DInter;fontSize=14;fillColor=#d5e8d4;strokeColor=#82b366;" edge="1" parent="1" source="0NqgMj0i8Dpj532-MMCN-29" target="0NqgMj0i8Dpj532-MMCN-25">
          <mxGeometry relative="1" as="geometry" />
        </mxCell>
        <mxCell id="0NqgMj0i8Dpj532-MMCN-29" value="Atingiu número máximo de tentativas?" style="rhombus;whiteSpace=wrap;html=1;fontFamily=Inter;fontSource=https%3A%2F%2Ffonts.googleapis.com%2Fcss%3Ffamily%3DInter;fontSize=14;fillColor=#d5e8d4;strokeColor=#82b366;" vertex="1" parent="1">
          <mxGeometry x="350" y="360.02" width="124" height="121.97" as="geometry" />
        </mxCell>
        <mxCell id="0NqgMj0i8Dpj532-MMCN-32" value="1.2 - Informar que o usuário foi bloqueado pelo adminstrador do sistema" style="whiteSpace=wrap;html=1;fontFamily=Inter;fontSource=https%3A%2F%2Ffonts.googleapis.com%2Fcss%3Ffamily%3DInter;fontSize=14;fillColor=#d5e8d4;strokeColor=#82b366;" vertex="1" parent="1">
          <mxGeometry x="541" y="371" width="202" height="100" as="geometry" />
        </mxCell>
      </root>
    </mxGraphModel>
  </diagram>
</mxfile>
